<?xml version="1.0" encoding="iso-8859-1"?>
<!-- Generator: Adobe Illustrator 26.3.1, SVG Export Plug-In . SVG Version: 6.00 Build 0)  -->
<svg version="1.1" id="Layer_1" xmlns="http://www.w3.org/2000/svg" xmlns:xlink="http://www.w3.org/1999/xlink" x="0px" y="0px"
	 viewBox="0 0 30 30" style="enable-background:new 0 0 30 30;" xml:space="preserve">
<path style="fill:#F8F8F8;" d="M0,0h20c5.523,0,10,4.477,10,10v20H10C4.477,30,0,25.523,0,20V0z"/>
<g>
	<defs>
		<rect id="SVGID_1_" x="7" y="7" width="15.967" height="15"/>
	</defs>
	<clipPath id="SVGID_00000000927790004023927390000004254532846738384277_">
		<use xlink:href="#SVGID_1_"  style="overflow:visible;"/>
	</clipPath>
	<g style="clip-path:url(#SVGID_00000000927790004023927390000004254532846738384277_);">
		<path style="fill:#028858;" d="M14.983,7C10.583,7,7,10.367,7,14.5v6.8C7,21.683,7.317,22,7.7,22h7.283
			c4.4,0,7.983-3.367,7.983-7.5S19.383,7,14.983,7z M16.625,17.258h-3.642c-0.392,0-0.708-0.317-0.708-0.708
			c0-0.392,0.317-0.7,0.708-0.7h3.642c0.383,0,0.7,0.317,0.7,0.7C17.325,16.933,17.008,17.258,16.625,17.258z M18.075,13.708h-6.55
			c-0.392,0-0.7-0.317-0.7-0.7c0-0.383,0.308-0.708,0.7-0.708h6.55c0.392,0,0.708,0.317,0.708,0.708
			C18.783,13.4,18.467,13.708,18.075,13.708L18.075,13.708z"/>
	</g>
</g>
</svg>
